<svg xmlns="http://www.w3.org/2000/svg" version="1.1" xmlns:xlink="http://www.w3.org/1999/xlink" xmlns:svgjs="http://svgjs.dev/svgjs" viewBox="0 0 1920 1080"><rect width="1920" height="1080" fill="#3551a7"></rect><g transform="matrix(7.04171909509728e-17,1.15,-1.15,7.04171909509728e-17,1515.0281066894531,-488.13232269287096)"><path d="M0,-1080C-20.288049126708547,-956.5004650519352,-103.87466116481347,-552.2982038027906,-121.72829476025129,-339.0027903116108C-139.58192835568912,-125.70737682043108,-133.61087439857852,-1.3355803697098168,-107.12180157262691,199.77248094707824C-80.6327287466753,400.8805422638663,21.550001432865734,640.8098252234228,37.20614219545837,867.6455775891176C52.862282958051004,1094.4813299548123,-6.983933297828021,1345.3945914060998,-13.184956997071083,1560.786995141247C-19.385980696314146,1776.179398876394,-2.1974928328451804,2060.1311658568743,0,2160L 1920 2160 L 1920 -1080 Z" fill="url(&quot;#SvgjsLinearGradient1494&quot;)"></path><path d="M160,-1080C178.6482647372503,-1016.8309557377285,292.4639049395361,-866.5921982191664,271.8895884235018,-700.9857344263705C251.3152719074674,-535.3792706335746,48.72852743662284,-258.0753492240553,36.554100903793824,-86.36121724322419C24.379674370964807,85.35291473760691,171.34552235709114,199.95273955053628,198.84302922652768,329.2990574586162C226.3405360959642,458.64537536669604,225.42730953077844,532.9330731887335,201.5391421204131,689.7166902052552C177.65097471004773,846.5003072217769,76.06221714342276,1118.3992875170857,55.51402476433549,1270.0007595577463C34.96583238524822,1421.602231598407,60.835658639945365,1450.9923157088429,78.24998784588945,1599.3255224492184C95.66431705183354,1747.658729189594,146.3749979743149,2066.5542537415363,160,2160L 1920 2160 L 1920 -1080 Z" fill="url(&quot;#SvgjsLinearGradient1495&quot;)"></path><path d="M320,-1080C313.26492307729836,-965.2957271287266,285.3581763832759,-598.5860934257346,279.5895384637903,-391.7743627723596C273.82090054430466,-184.96263211898466,264.178899376746,-52.28981482602708,285.3881724830864,160.8703839202496C306.5974455894268,374.03058266652624,395.1206071553152,671.7061895361942,406.8451771018325,887.1868297053004C418.5697470483498,1102.6674698744066,370.209788345829,1241.6186965524366,355.73559216219024,1453.7542249348867C341.2613959785515,1665.8897533173367,325.95593202703174,2042.2923708224812,320,2160L 1920 2160 L 1920 -1080 Z" fill="url(&quot;#SvgjsLinearGradient1496&quot;)"></path><path d="M480,-1080C480.7343936145635,-967.1632471453951,502.959950360777,-625.1218838016127,484.40636168738075,-402.9794828723704C465.8527730139845,-180.8370819431281,352.3144610831713,39.969576492166,368.67846795962265,252.85440557545377C385.042474836074,465.73923465874157,550.3728751697893,678.0331644415155,582.5904029460888,874.3294916273562C614.8079307223884,1070.625818813197,579.0820351084345,1216.3539506283905,561.9836346174197,1430.6323686904977C544.885234126405,1644.910786752605,493.66393910290327,2038.438728115083,480,2160L 1920 2160 L 1920 -1080 Z" fill="url(&quot;#SvgjsLinearGradient1497&quot;)"></path><path d="M640,-1080C648.5062703802207,-984.9584722494718,673.3168948496227,-691.4923597452304,691.0376222813245,-509.75083349683086C708.7583497130263,-328.00930724843136,753.7611469557569,-157.37190096339904,746.3243645902107,10.449157490396885C738.8875822246646,178.2702159441928,649.3293819733717,313.80989078744483,646.4169280880478,497.1755172259448C643.5044742027239,680.5411436644448,711.5915400286395,915.7244310207385,728.8496412782677,1110.6429161213969C746.1077425278958,1305.5614012220553,764.7738091321946,1491.7935805167947,749.9655355858167,1666.6864278298951C735.1572620394388,1841.5792751429956,658.3275892643028,2077.7810713049826,640,2160L 1920 2160 L 1920 -1080 Z" fill="url(&quot;#SvgjsLinearGradient1498&quot;)"></path><path d="M800,-1080C778.9913384736755,-986.2412307864614,670.2476676570861,-713.1518314819368,673.9480308420528,-517.4473847187686C677.6483940270195,-321.7429379556004,808.2563526889677,-79.82127716870312,822.2021791098005,94.22668057900933C836.1480055306332,268.27463832672174,775.6928489273206,361.6857342912924,757.6229893670492,526.8403617675061C739.5531298067777,691.9949892437198,688.6474823175585,906.226324273205,713.7830217481721,1085.1544454362916C738.9185611787858,1264.0825665993782,894.0667295754268,1421.2681629854073,908.4362259507315,1600.4090887460254C922.8057223260361,1779.5500145066435,818.0727043251219,2066.7348481243375,800,2160L 1920 2160 L 1920 -1080 Z" fill="url(&quot;#SvgjsLinearGradient1499&quot;)"></path><path d="M960,-1080C954.6027862764329,-981.5349631129673,909.7087114075939,-627.0414577182466,927.616717658597,-489.20977867780346C945.5247239096002,-351.37809963736026,1076.628115296161,-406.19715312521015,1067.4480375060186,-253.00992575734114C1058.2679597158763,-99.82269838947212,878.531276781258,240.93337002358962,872.5362509177432,429.91358552941057C866.5412250542284,618.8938010352315,1013.799039903013,743.9276526412098,1031.4778823249296,880.8713672775845C1049.1567247468463,1017.8150819139591,992.2336533163409,1121.957750379083,978.6093054492433,1251.575873347659C964.9849575821456,1381.1939963162347,952.8333460305512,1507.1760839803153,949.731795122344,1658.5801050890389C946.6302442141368,1809.9841261977624,958.2886325203907,2076.4300175148396,960,2160L 1920 2160 L 1920 -1080 Z" fill="url(&quot;#SvgjsLinearGradient1500&quot;)"></path><path d="M1120,-1080C1134.3733289632612,-984.0292014766547,1221.1800892371423,-707.6871114426532,1206.239973779567,-504.1752088599287C1191.2998583219917,-300.66330627720424,1063.026118651461,-98.46523167611832,1030.3593072545484,141.07141549634713C997.6924958576357,380.6080626688126,985.5385456639978,705.8862529164102,1010.2391053980907,933.044674174864C1034.9396651321836,1160.2030954333177,1160.2691832254545,1299.5293887428804,1178.5626656591062,1504.0219430470697C1196.8561480927578,1708.514497351259,1129.7604442765178,2050.6703238411783,1120,2160L 1920 2160 L 1920 -1080 Z" fill="url(&quot;#SvgjsLinearGradient1501&quot;)"></path><path d="M1280,-1080C1297.4126471980712,-979.0840724743435,1395.5758227656013,-674.9697263227478,1384.475883188428,-474.5044348460614C1373.3759436112548,-274.039143369375,1233.0045751401879,-47.39246224951387,1213.40036253696,122.79174886011862C1193.7961499337323,292.9759599697511,1259.8841184314424,398.7058029683901,1266.8506075690614,546.6008318117335C1273.8170967066803,694.495860655077,1266.3636612770251,837.0641678725483,1255.1992973626734,1010.1619219201789C1244.0349334483217,1183.2596759678095,1195.7309736433963,1393.5476764175467,1199.8644240829508,1585.1873560975168C1203.9978745225053,1776.827035777487,1266.6440706804917,2064.1978926829197,1280,2160L 1920 2160 L 1920 -1080 Z" fill="url(&quot;#SvgjsLinearGradient1502&quot;)"></path><path d="M1440,-1080C1439.2352399948436,-973.9531283629472,1415.4469930885316,-662.4636181898924,1435.411439969061,-443.7187701776829C1455.3758868495902,-224.97392216547345,1560.288985058044,32.36730356107077,1559.7866812831762,232.4690880732569C1559.2843775083084,432.570872585443,1454.0248596940446,564.194466184499,1432.3976173198535,756.8919368954338C1410.7703749456623,949.5894076063686,1428.7561632580043,1154.8025684881045,1430.0232270380288,1388.6539123388654C1431.2902908180533,1622.5052561896264,1438.3372045063381,2031.4423187231441,1440,2160L 1920 2160 L 1920 -1080 Z" fill="url(&quot;#SvgjsLinearGradient1503&quot;)"></path><path d="M1600,-1080C1609.6612766884955,-1031.0169359547845,1639.9506401233612,-924.4333134909405,1657.9676601309723,-786.1016157287065C1675.9846801385834,-647.7699179664726,1723.9357440202475,-423.06307666874693,1708.102120045667,-250.00981342659622C1692.2684960710867,-76.95655018444549,1573.7032019095145,133.18321446171882,1562.96591628349,252.2179637241979C1552.2286306574656,371.25271298667695,1651.4080736754352,351.4688378364863,1643.6784062895201,464.1986821482783C1635.948738903605,576.9285264600703,1542.5726822587126,765.54102312018,1516.5879119680003,928.5970295949501C1490.603141677288,1091.6530360697202,1486.9581584450357,1285.0690093165774,1487.7697845452467,1442.5347209968988C1488.5814106454577,1600.0004326772203,1502.7526326601403,1753.8137531763618,1521.457668569266,1873.3912996768786C1540.1627044783916,1992.9688461773953,1586.909611428211,2112.23188327948,1600,2160L 1920 2160 L 1920 -1080 Z" fill="url(&quot;#SvgjsLinearGradient1504&quot;)"></path><path d="M1760,-1080C1742.0634743497412,-998.2036141783706,1633.5017126380092,-748.9365019938493,1652.3808460984474,-589.2216850702237C1671.2599795588856,-429.506868146598,1865.4395288519536,-307.24765009225905,1873.2748007626296,-121.71109845824611C1881.1100726733057,63.82545317576685,1708.213929924084,329.8506327108005,1699.3924775625032,523.9976247338541C1690.5710252009226,718.1446167569077,1829.6472806075988,877.0678984570972,1820.3460865931452,1043.1708536800754C1811.0448925786916,1209.2738089030536,1653.6429945746393,1334.4771650184027,1643.5853134757817,1520.6153560717235C1633.5276323769242,1706.7535471250442,1740.5975522459637,2053.435892678621,1760,2160L 1920 2160 L 1920 -1080 Z" fill="url(&quot;#SvgjsLinearGradient1505&quot;)"></path></g><defs><linearGradient x1="0.1" y1="0" x2="0" y2="1" id="SvgjsLinearGradient1494"><stop stop-color="#3551a7" offset="0"></stop><stop stop-color="#3564a7" offset="0"></stop></linearGradient><linearGradient x1="0.1" y1="0" x2="0" y2="1" id="SvgjsLinearGradient1495"><stop stop-color="#324c9d" offset="0"></stop><stop stop-color="#325e9d" offset="0.08333333333333333"></stop></linearGradient><linearGradient x1="0.1" y1="0" x2="0" y2="1" id="SvgjsLinearGradient1496"><stop stop-color="#2e4792" offset="0"></stop><stop stop-color="#2e5892" offset="0.16666666666666666"></stop></linearGradient><linearGradient x1="0.1" y1="0" x2="0" y2="1" id="SvgjsLinearGradient1497"><stop stop-color="#2b4288" offset="0"></stop><stop stop-color="#2b5188" offset="0.25"></stop></linearGradient><linearGradient x1="0.1" y1="0" x2="0" y2="1" id="SvgjsLinearGradient1498"><stop stop-color="#283d7d" offset="0"></stop><stop stop-color="#284b7d" offset="0.3333333333333333"></stop></linearGradient><linearGradient x1="0.1" y1="0" x2="0" y2="1" id="SvgjsLinearGradient1499"><stop stop-color="#243873" offset="0"></stop><stop stop-color="#244573" offset="0.4166666666666667"></stop></linearGradient><linearGradient x1="0.1" y1="0" x2="0" y2="1" id="SvgjsLinearGradient1500"><stop stop-color="#213368" offset="0"></stop><stop stop-color="#213f68" offset="0.5"></stop></linearGradient><linearGradient x1="0.1" y1="0" x2="0" y2="1" id="SvgjsLinearGradient1501"><stop stop-color="#1e2e5e" offset="0"></stop><stop stop-color="#1e395e" offset="0.5833333333333334"></stop></linearGradient><linearGradient x1="0.1" y1="0" x2="0" y2="1" id="SvgjsLinearGradient1502"><stop stop-color="#1b2954" offset="0"></stop><stop stop-color="#1b3254" offset="0.6666666666666666"></stop></linearGradient><linearGradient x1="0.1" y1="0" x2="0" y2="1" id="SvgjsLinearGradient1503"><stop stop-color="#172349" offset="0"></stop><stop stop-color="#172b49" offset="0.75"></stop></linearGradient><linearGradient x1="0.1" y1="0" x2="0" y2="1" id="SvgjsLinearGradient1504"><stop stop-color="#141e3f" offset="0"></stop><stop stop-color="#14253f" offset="0.8333333333333334"></stop></linearGradient><linearGradient x1="0.1" y1="0" x2="0" y2="1" id="SvgjsLinearGradient1505"><stop stop-color="#111934" offset="0"></stop><stop stop-color="#111f34" offset="0.9166666666666666"></stop></linearGradient></defs></svg>